# xmcd
#
# Track frame offsets:
#	150
#	16640
#	34914
#	50453
#	66728
#	82599
#	100544
#	118078
#	134315
#	154821
#	168836
#	184249
#	200136
#	214850
#
# Disc length: 3099 seconds
#
# Revision: 0
# Processed by: cddbd v1.5.2PL0 Copyright (c) Steve Scherf et al.
# Submitted via: dBpowerAMP V4.0
#
DISCID=bc0c190e
DTITLE=Mark Seymour - Titanic
DYEAR=1900
DGENRE=
TTITLE0=Say Goodbye
TTITLE1=True Believers
TTITLE2=The One and Only You
TTITLE3=Back in the Hole
TTITLE4=Blind Eye
TTITLE5=She's not Fooling Around
TTITLE6=Titanic
TTITLE7=Everything's on Fire
TTITLE8=Long Way to the Water
TTITLE9=Talking to a Stranger
TTITLE10=Hear No Evil
TTITLE11=When You Fall
TTITLE12=Dog
TTITLE13=Parting Glass
EXTD=
EXTT0=
EXTT1=
EXTT2=
EXTT3=
EXTT4=
EXTT5=
EXTT6=
EXTT7=
EXTT8=
EXTT9=
EXTT10=
EXTT11=
EXTT12=
EXTT13=
PLAYORDER=
